<svg xmlns="http://www.w3.org/2000/svg" version="1.1" xmlns:xlink="http://www.w3.org/1999/xlink" xmlns:svgjs="http://svgjs.dev/svgjs" width="100%" height="100%" viewBox="0 0 1000 600"><rect width="1000" height="600" x="0" y="0" fill="#ffffff"/><g><rect width="333.3333333333333" height="333.3333333333333" y="142.50225194450172" fill="#335b96" transform="matrix(1.039241628429489,0,0,1.0392416284294888,0,-21.30119972874178)" x="120.28001403808592"/><path d="M332.7975210806061 384.1689057468202L241.0958414772879 384.1689057468202L241.0958414772879 234.16890749534448L331.62296036091345 234.16890749534448L331.62296036091345 250.2689837018627L259.2585608988761 250.2689837018627L259.2585608988761 300.9469815832341L326.9533653045745 300.9469815832341L326.9533653045745 317.0757056121838L259.2585608988761 317.0757056121838L259.2585608988761 368.0401817178705L332.7975210806061 368.0401817178705L332.7975210806061 384.1689057468202Z " fill="#ffffff" transform="matrix(1.039241628429489,0,0,1.0392416284294888,0,-21.30119972874178)"/><path d="M555.1094024210928 384.1689057468202L536.9466829995046 384.1689057468202L536.9466829995046 234.16890749534448L555.1094024210928 234.16890749534448L555.1094024210928 308.5673023500203L556.8855674118474 308.5673023500203L624.2652457707991 234.16890749534448L647.9856427441035 234.16890749534448L584.9890812171755 301.83506407861137L647.9856427441035 384.1689057468202L626.0127629391222 384.1689057468202L573.8737261137429 314.4401059484833L555.1094024210928 335.5249032580872L555.1094024210928 384.1689057468202ZM671.4195614930926 234.16890749534448L689.6109287371123 234.16890749534448L689.6109287371123 384.1689057468202L671.4195614930926 384.1689057468202L671.4195614930926 234.16890749534448ZM776.9008436859752 257.8893044686489L732.0670015806354 384.1689057468202L713.0448474861014 384.1689057468202L768.1059621994964 234.16890749534448L786.8702858921466 234.16890749534448L841.9600484279732 384.1689057468202L822.9092465110077 384.1689057468202L778.0754044056679 257.8893044686489L776.9008436859752 257.8893044686489ZM739.114365898791 341.6841850808655L739.114365898791 325.5841088743473L815.861882192852 325.5841088743473L815.861882192852 341.6841850808655L739.114365898791 341.6841850808655Z " fill="#966f33" transform="matrix(1.039241628429489,0,0,1.0392416284294888,0,-21.30119972874178)"/></g></svg>